<svg xmlns="http://www.w3.org/2000/svg" width="63.581" height="63.697" viewBox="0 0 63.581 63.697">
  <path id="Icon_feather-phone-call" data-name="Icon feather-phone-call" d="M40.592,13.07A14.463,14.463,0,0,1,52.018,24.5M40.592,1.5a26.033,26.033,0,0,1,23,22.967M60.7,47.55v8.678a5.785,5.785,0,0,1-6.306,5.785,57.244,57.244,0,0,1-24.963-8.88A56.405,56.405,0,0,1,12.072,35.777,57.244,57.244,0,0,1,3.191,10.7,5.785,5.785,0,0,1,8.948,4.393h8.678A5.785,5.785,0,0,1,23.41,9.368,37.14,37.14,0,0,0,25.435,17.5a5.785,5.785,0,0,1-1.3,6.1L20.46,27.273A46.281,46.281,0,0,0,37.815,44.628l3.674-3.674a5.785,5.785,0,0,1,6.1-1.3,37.141,37.141,0,0,0,8.128,2.025A5.785,5.785,0,0,1,60.7,47.55Z" transform="translate(-1.665 0.156)" fill="none" stroke="#fff" stroke-linecap="round" stroke-linejoin="round" stroke-width="3"/>
</svg>
