<svg xmlns="http://www.w3.org/2000/svg" width="99" height="99" viewBox="0 0 99 99">
  <g id="noun_end_call_1186065" data-name="noun_end call_1186065" transform="translate(-0.5 -0.5)">
    <path id="Path_1" data-name="Path 1" d="M50,.5A49.5,49.5,0,1,0,99.5,50,49.549,49.549,0,0,0,50,.5ZM72.2,53.8l-5.8,3.4a.952.952,0,0,1-1.3-.3A16.31,16.31,0,0,0,61.6,53a18.89,18.89,0,0,0-4.5-2.8.883.883,0,0,1-.5-1.2l1.2-3.1a21.875,21.875,0,0,0-15.4,0L43.6,49a.967.967,0,0,1-.5,1.2A17.757,17.757,0,0,0,38.6,53a18.47,18.47,0,0,0-3.5,3.9.952.952,0,0,1-1.3.3L28,53.8a.889.889,0,0,1-.3-1.3,29,29,0,0,1,5.4-6.2c2.1-1.8,7.7-5.4,17.2-5.4s15.1,3.6,17.2,5.4a29,29,0,0,1,5.4,6.2C72.8,52.9,72.7,53.6,72.2,53.8Z" fill="#d33"/>
  </g>
</svg>
