<svg xmlns="http://www.w3.org/2000/svg" xmlns:xlink="http://www.w3.org/1999/xlink" width="231.576" height="169.807" viewBox="0 0 231.576 169.807">
  <defs>
    <linearGradient id="linear-gradient" x1="0.5" y1="1" x2="0.5" gradientUnits="objectBoundingBox">
      <stop offset="0" stop-color="gray" stop-opacity="0.251"/>
      <stop offset="0.54" stop-color="gray" stop-opacity="0.122"/>
      <stop offset="1" stop-color="gray" stop-opacity="0.102"/>
    </linearGradient>
    <linearGradient id="linear-gradient-2" x1="0.5" y1="1" x2="0.5" y2="0" xlink:href="#linear-gradient"/>
  </defs>
  <g id="undraw_upload_87y9" transform="translate(-12.31 -30.041)">
    <path id="Path_3127" data-name="Path 3127" d="M209.011,66.091c-7.945-3.23-16.342-5.934-24.914-5.59a37.043,37.043,0,0,0-30.625,19.206c-5.028,9.429-5.647,20.482-7.813,30.946-2.668,12.894-7.777,25.147-13.236,37.13-2.933,6.428-6.026,13.011-6.507,20.068-.669,9.794,4.014,19.557,11.357,26.079s17.1,9.953,26.884,10.7c5.209.4,10.652.03,15.279-2.394,4.9-2.565,8.463-7.2,13.377-9.728,4.555-2.351,9.882-2.672,15-2.366a67.15,67.15,0,0,1,19.578,4.16c7.146,2.685,13.792,6.571,20.923,9.292s15.1,4.241,22.387,1.969c6.84-2.138,12.257-7.311,17.137-12.558a219.77,219.77,0,0,0,21.846-27.639c4.4-6.592,8.5-13.548,10.444-21.233a42.423,42.423,0,0,0-12.759-41.3c-9.405-8.311-22.036-11.919-34.4-14.108-11.271-2-24.3-2.12-34.68-7.323C228.391,76.435,219.387,70.31,209.011,66.091Z" transform="translate(-96.442 -30.43)" fill="#578dd9" opacity="0.8"/>
    <path id="Path_3129" data-name="Path 3129" d="M855.31,216.467c.032-.073.058-.15.083-.227a4.707,4.707,0,0,0-.214.524C855.225,216.663,855.27,216.565,855.31,216.467Z" transform="translate(-669.869 -152.902)" fill="url(#linear-gradient)"/>
    <path id="Path_3131" data-name="Path 3131" d="M749.323,560.222c-.077.951-2.418.592-2.418.592-3.882.539-3.241-3.266-3.241-3.266v-.195l.135-3.548.038-.99s4.275-1.954,4.166-1.543a2.429,2.429,0,0,0,.173.923c.214.665.519,1.417.519,1.417a12.785,12.785,0,0,1-.1,2.031c-.128.462.669,1.7.669,1.7s0,.077.013.214A24.919,24.919,0,0,1,749.323,560.222Z" transform="translate(-582.16 -416.273)" fill="#b77983"/>
    <path id="Path_3132" data-name="Path 3132" d="M796.327,562.828s-2.341.361-2.418-.592a24.308,24.308,0,0,1,.041-2.674,1.906,1.906,0,0,1,.011-.214s.8-1.235.669-1.7a12.807,12.807,0,0,1-.1-2.033s.083-.2.192-.485a5.913,5.913,0,0,0,.5-1.853c-.1-.413,4.166,1.541,4.166,1.541l.043,1.107.13,3.431v.195S800.211,563.369,796.327,562.828Z" transform="translate(-621.68 -417.851)" fill="#b77983"/>
    <path id="Path_3137" data-name="Path 3137" d="M875.835,284.651h-.045C875.871,284.437,875.835,284.651,875.835,284.651Z" transform="translate(-686.073 -206.614)" fill="none"/>
    <path id="Path_3138" data-name="Path 3138" d="M748.9,552.2a4.129,4.129,0,0,1-4.378,1.61l.038-.99s4.275-1.954,4.166-1.543A2.268,2.268,0,0,0,748.9,552.2Z" transform="translate(-582.863 -416.273)" opacity="0.05"/>
    <path id="Path_3139" data-name="Path 3139" d="M802.513,555.968a3.325,3.325,0,0,1-4.7-.8,5.912,5.912,0,0,0,.5-1.853c-.1-.413,4.166,1.541,4.166,1.541Z" transform="translate(-624.762 -417.883)" opacity="0.05"/>
    <path id="Path_3141" data-name="Path 3141" d="M806.13,488.622s2.6-1.5,3.164-.823S806.13,488.622,806.13,488.622Z" transform="translate(-631.303 -366.276)" opacity="0.05"/>
    <path id="Path_3142" data-name="Path 3142" d="M813.114,496.14s-.427.214.515.487S813.114,496.14,813.114,496.14Z" transform="translate(-636.719 -372.971)" opacity="0.05"/>
    <path id="Path_3143" data-name="Path 3143" d="M739.991,476.769a3.986,3.986,0,0,0,4.192.282A31.258,31.258,0,0,0,739.991,476.769Z" transform="translate(-579.3 -357.714)" opacity="0.05"/>
    <path id="Path_3144" data-name="Path 3144" d="M751.088,490.24a2.757,2.757,0,0,1-1.877,1.389C747.949,491.809,751.088,490.24,751.088,490.24Z" transform="translate(-586.316 -368.332)" opacity="0.05"/>
    <path id="Path_3145" data-name="Path 3145" d="M797.71,502.52s2.958,4.7,2.392,5.812S797.71,502.52,797.71,502.52Z" transform="translate(-624.683 -377.987)" opacity="0.05"/>
    <path id="Path_3156" data-name="Path 3156" d="M749.352,581.827a6.054,6.054,0,0,1-.026.712c-.077.951-2.418.592-2.418.592-2.138.3-2.907-.729-3.161-1.71a3.915,3.915,0,0,1-.118-.975,4.052,4.052,0,0,1,.038-.586v-.194a1.43,1.43,0,0,1,1.33.271,2.258,2.258,0,0,0,2.212.18,2.969,2.969,0,0,1,1.282.385c.2.173.532-.244.785-.641.015.257.038.72.053,1.216C749.348,581.331,749.352,581.588,749.352,581.827Z" transform="translate(-582.163 -438.594)" opacity="0.05"/>
    <path id="Path_3157" data-name="Path 3157" d="M745.6,584.9s-.641.628-1.851-.342a3.91,3.91,0,0,1-.117-.975A11.181,11.181,0,0,0,745.6,584.9Z" transform="translate(-582.163 -441.719)" opacity="0.05"/>
    <path id="Path_3158" data-name="Path 3158" d="M767.845,587.232a.483.483,0,0,1-.695-.111,4.569,4.569,0,0,0,.684-.641C767.841,586.736,767.845,586.993,767.845,587.232Z" transform="translate(-600.656 -444)" opacity="0.05"/>
    <path id="Path_3159" data-name="Path 3159" d="M793.868,583.892a6.58,6.58,0,0,0,.023.712c.077.953,2.418.592,2.418.592,2.138.3,2.907-.727,3.161-1.71a4.1,4.1,0,0,0,.079-1.56v-.195a1.448,1.448,0,0,0-1.332.271,2.253,2.253,0,0,1-2.21.18,2.98,2.98,0,0,0-1.283.387c-.2.173-.532-.244-.782-.641-.015.257-.041.72-.055,1.216C793.87,583.394,793.866,583.651,793.868,583.892Z" transform="translate(-621.662 -440.219)" opacity="0.05"/>
    <path id="Path_3160" data-name="Path 3160" d="M811.43,586.945s.641.628,1.849-.342a3.9,3.9,0,0,0,.12-.973A11.434,11.434,0,0,1,811.43,586.945Z" transform="translate(-635.471 -443.331)" opacity="0.05"/>
    <path id="Path_3161" data-name="Path 3161" d="M793.868,589.292a.481.481,0,0,0,.693-.111,4.521,4.521,0,0,1-.684-.641C793.87,588.794,793.866,589.051,793.868,589.292Z" transform="translate(-621.662 -445.619)" opacity="0.05"/>
    <path id="Path_3178" data-name="Path 3178" d="M309.575,451.346a2.939,2.939,0,0,1-.656-2.238l9.435-77.2.782-6.413a2.96,2.96,0,0,1,2.916-2.6l27.637-.184a2.956,2.956,0,0,0,2.937-3.038l-.011-.293a2.958,2.958,0,0,1,2.956-3.059h29.041a2.956,2.956,0,0,1,2.956,2.95,3.161,3.161,0,0,1-.026.4,2.956,2.956,0,0,0,2.856,3.347l27.891.712a2.954,2.954,0,0,1,2.839,3.454l-13.943,81.442-.263,1.539a2.892,2.892,0,0,1-.428,1.1Z" transform="translate(-240.358 -263.038)" fill="#c4ced6"/>
    <path id="Path_3184" data-name="Path 3184" d="M415.241,514.132a56.645,56.645,0,0,1-19.176-5.378,58.165,58.165,0,0,1-12.535-8.42c9.85-.8,11.265-6.184,11.265-6.184C402.1,505.738,415.241,514.132,415.241,514.132Z" transform="translate(-299.038 -371.406)" opacity="0.1"/>
    <path id="Path_3190" data-name="Path 3190" d="M370.94,451.6s21.748-1.191,38.179-9.128l.554,1.27s-13.039,7.61-38.733,9.6Z" transform="translate(-289.139 -330.773)" fill="#6c63ff" opacity="0.3"/>
    <ellipse id="Ellipse_176" data-name="Ellipse 176" cx="21.803" cy="1.975" rx="21.803" ry="1.975" transform="translate(161.821 195.899)" fill="#6c63ff" opacity="0.1"/>
    <path id="Path_3196" data-name="Path 3196" d="M805.453,445.757a1.96,1.96,0,0,0-.021-.214,1.086,1.086,0,0,0-.036-.214c-.028-.145-.058-.288-.092-.427-.017-.066-.034-.135-.053-.2a5.418,5.418,0,0,0-1.069-2.067c-.028-.034-.058-.066-.085-.1s-.115-.124-.173-.182-.111-.109-.167-.158-.107-.094-.158-.137c-.1-.083-.2-.154-.282-.214a1.75,1.75,0,0,0-.173-.111.949.949,0,0,0-.4-.13l-.887-.088h0l-1.212-.12-4.333-1.682-.171.06a9.819,9.819,0,0,1-.321-1.069.958.958,0,0,0,.342-.25.779.779,0,0,0,.235-.3c.109-.252-.1-.789-.058-1.1a5.174,5.174,0,0,1,.534-1.417,6.573,6.573,0,0,0,.716-3.055,3.445,3.445,0,0,0-1.424-2.71c-.46-.306-1-.468-1.479-.746-.372-.214-.7-.5-1.054-.744a6.058,6.058,0,0,0-5.968-.427,29.126,29.126,0,0,0-2.516,1.637,4.247,4.247,0,0,1-2.843.782.694.694,0,0,0-.03.124l-.083-.011c-.171.466.248.928.641,1.246a4.33,4.33,0,0,0,2.52,1.229,2.649,2.649,0,0,1,1.1.081,1.01,1.01,0,0,1,.214.128,4.763,4.763,0,0,0,1.5,4.748l-2.212-.8s-.092.047-.235.137l-3.07-2.044s-6.154-2.232-7.864,1.244,7.411,1.682,7.411,1.682l1.952,1.069a1.775,1.775,0,0,0,.214,1.171l5.32,3.288a28.076,28.076,0,0,1-3.155.855c-.455,0-1.71.449-2.507,2.242s-3.649,10.543-6.156,12-9.119,11.216-9.119,11.216l.03.077c-.117.032-.233.064-.346.1a7.006,7.006,0,0,0-3.435,2.591,1.1,1.1,0,0,0,.77,1.734,4.8,4.8,0,0,0,4.722-1.781c.045-.058.086-.115.124-.173a.912.912,0,0,0,.641.03l3.191-2.58s-2.5,2.458-1.032,4.7l-.111.156a35.679,35.679,0,0,0-5.344,11.633s-1.368,1.009-1.481,5.047a77.263,77.263,0,0,1-1.484,10.543s-.911,7.74-.342,10.094c0,0,.066.094.188.237-.043.051-.09.107-.141.162a2.768,2.768,0,0,1-2.441,1.069c-1.595-.338-1.595,2.467.684,2.691a60.731,60.731,0,0,1,6.225,1.248,1.31,1.31,0,0,0,1.625-1.4,11.835,11.835,0,0,0-.684-3.087c-.023-.053-.047-.107-.071-.156.066-.064.135-.128.2-.2,0,0,0-4.936.8-6.28,0,0,2.165-10.207,2.05-12.787-.088-2.018,5.62-9.878,8.1-13.2l-.021-.126c.641-.855,1.039-1.368,1.039-1.368l1.922,12.227a17.493,17.493,0,0,0,2.052,4.149s4.9,9.309,5.472,12.225a9.2,9.2,0,0,0,1.727,4.023l-.147.141a2.5,2.5,0,0,1-2.15.772c-1.595-.338-1.595,2.467.684,2.691a61.266,61.266,0,0,1,6.222,1.25,1.312,1.312,0,0,0,1.627-1.4,10.116,10.116,0,0,0-.876-3.476,2.429,2.429,0,0,0-.13-.214,1.2,1.2,0,0,0,.453-.318s-2.965-7.067-2.965-8.978c0,0-1.253-7.289-5.47-9.98,0,0,.4-9.119,1.6-14.194.03-.124.06-.248.09-.368a33.823,33.823,0,0,0,3.326-.693l.113-3.365.571,2.691,6.383-3.925s-.056-.708-.162-1.791c-.056-.543-.122-1.18-.2-1.87-.064-.552-.137-1.137-.214-1.736-.021-.15-.041-.3-.062-.451-.083-.6-.175-1.216-.274-1.815q-.058-.338-.115-.667c-.053-.293-.107-.579-.162-.855-.028-.139-.058-.278-.086-.413s-.06-.269-.09-.4-.06-.256-.09-.383c-.017-.062-.032-.124-.047-.184-.032-.122-.064-.242-.1-.357a6.413,6.413,0,0,1-.231-1.471v-.592a4.234,4.234,0,0,1,.058-.59c.013-.1.03-.195.049-.291a6.525,6.525,0,0,1,.323-1.146c.07-.186.152-.37.239-.551.214-.428.427-.883.654-1.368.115-.242.231-.489.346-.742s.233-.509.351-.77a33.753,33.753,0,0,0,2.5-7.039c.03-.19.053-.37.064-.539a3.438,3.438,0,0,0,.006-.462Z" transform="translate(-595.916 -318.901)" fill="url(#linear-gradient-2)"/>
    <path id="Path_3197" data-name="Path 3197" d="M836.787,470.068l-3.76-2.542s-5.97-2.212-7.629,1.216,7.187,1.659,7.187,1.659l3.76,2.1Z" transform="translate(-646.29 -349.921)" fill="#b28b66"/>
    <rect id="Rectangle_1652" data-name="Rectangle 1652" width="35.964" height="55.986" transform="matrix(0.541, -0.841, 0.841, 0.541, 149.704, 141.235)" fill="#f9fafb"/>
    <rect id="Rectangle_1653" data-name="Rectangle 1653" width="10.175" height="2.394" transform="matrix(0.536, -0.844, 0.844, 0.536, 156.683, 139.124)" fill="#b7b6cc"/>
    <rect id="Rectangle_1654" data-name="Rectangle 1654" width="22.346" height="2.195" transform="matrix(0.536, -0.844, 0.844, 0.536, 163.142, 140.864)" fill="#b7b6cc"/>
    <rect id="Rectangle_1655" data-name="Rectangle 1655" width="22.346" height="2.195" transform="matrix(0.536, -0.844, 0.844, 0.536, 167.1, 143.377)" fill="#b7b6cc"/>
    <rect id="Rectangle_1656" data-name="Rectangle 1656" width="22.346" height="2.195" transform="matrix(0.536, -0.844, 0.844, 0.536, 171.057, 145.893)" fill="#b7b6cc"/>
    <rect id="Rectangle_1657" data-name="Rectangle 1657" width="22.315" height="2.192" transform="matrix(0.541, -0.841, 0.841, 0.541, 175.152, 149.54)" fill="#b7b6cc"/>
    <rect id="Rectangle_1658" data-name="Rectangle 1658" width="22.346" height="2.195" transform="matrix(0.536, -0.844, 0.844, 0.536, 178.972, 150.922)" fill="#fff"/>
    <rect id="Rectangle_1659" data-name="Rectangle 1659" width="22.346" height="2.195" transform="matrix(0.536, -0.844, 0.844, 0.536, 182.931, 153.434)" fill="#fff"/>
    <rect id="Rectangle_1660" data-name="Rectangle 1660" width="5.786" height="5.786" transform="matrix(0.536, -0.844, 0.844, 0.536, 199.549, 142.72)" fill="#b7b6cc"/>
    <path id="Path_3198" data-name="Path 3198" d="M902.818,823.392a58.72,58.72,0,0,0-6.036-1.231c-2.212-.214-2.212-2.993-.663-2.655a2.394,2.394,0,0,0,2.084-.759,4.86,4.86,0,0,0,.428-.468,1.283,1.283,0,0,1,.716-.438,5.994,5.994,0,0,1,3.615.117,1.563,1.563,0,0,1,.573.628,10.263,10.263,0,0,1,.855,3.42,1.283,1.283,0,0,1-1.571,1.385Z" transform="translate(-701.199 -625.728)" fill="#bebed0"/>
    <path id="Path_3199" data-name="Path 3199" d="M771.955,828.6a58.529,58.529,0,0,0-6.034-1.231c-2.212-.214-2.212-2.993-.665-2.653a2.652,2.652,0,0,0,2.366-1.045c.06-.064.113-.126.158-.184a1.283,1.283,0,0,1,.714-.427,5.969,5.969,0,0,1,3.617.118,1.956,1.956,0,0,1,.759,1.011,11.972,11.972,0,0,1,.663,3.042,1.283,1.283,0,0,1-1.578,1.37Z" transform="translate(-598.31 -629.826)" fill="#bebed0"/>
    <path id="Path_3200" data-name="Path 3200" d="M785.578,824.175c-2.64,2.721-4.9-.051-5.248-.509.06-.064.113-.126.158-.184a1.282,1.282,0,0,1,.714-.427,5.969,5.969,0,0,1,3.617.118A1.845,1.845,0,0,1,785.578,824.175Z" transform="translate(-611.019 -629.826)" opacity="0.1"/>
    <path id="Path_3201" data-name="Path 3201" d="M915.222,818.587c-1.144.78-4.993.588-4.993.588a3.642,3.642,0,0,1-.349-.428,4.858,4.858,0,0,0,.428-.468,1.282,1.282,0,0,1,.716-.438,5.994,5.994,0,0,1,3.615.117A1.562,1.562,0,0,1,915.222,818.587Z" transform="translate(-712.876 -625.728)" opacity="0.1"/>
    <path id="Path_3202" data-name="Path 3202" d="M812.74,683.154c-.776,1-5.2.774-5.2.774a8.473,8.473,0,0,1-1.881-4.2c-.554-2.873-5.308-12.052-5.308-12.052a17.386,17.386,0,0,1-1.99-4.091l-1.879-12.052s-9.066,11.941-8.954,14.484-1.992,12.612-1.992,12.612c-.774,1.328-.774,6.2-.774,6.2-2.873,2.993-5.305-.554-5.305-.554-.554-2.321.331-9.95.331-9.95a77.351,77.351,0,0,0,1.437-10.393c.109-3.98,1.439-4.974,1.439-4.974a35.457,35.457,0,0,1,5.192-11.47c.667-.955,1.109-1.466,1.109-1.466l17.911,2.1a11.275,11.275,0,0,0-.77,2.373c-1.165,5-1.552,13.991-1.552,13.991,4.091,2.653,5.308,9.833,5.308,9.833C809.865,676.188,812.74,683.154,812.74,683.154Z" transform="translate(-610.191 -490.812)" fill="#2b44ff"/>
    <g id="Group_2789" data-name="Group 2789" transform="translate(171.629 155.203)" opacity="0.05">
      <path id="Path_3203" data-name="Path 3203" d="M804.851,673.283l-.231-1.473s-9.066,11.941-8.954,14.484-1.99,12.612-1.99,12.612c-.776,1.327-.776,6.2-.776,6.2a3.78,3.78,0,0,1-1.729,1.109,3.041,3.041,0,0,0,3.057-1.109s0-4.865.774-6.2c0,0,2.1-10.062,1.99-12.612C796.905,684.3,802.439,676.553,804.851,673.283Z" transform="translate(-791.17 -666.293)"/>
      <path id="Path_3204" data-name="Path 3204" d="M845.585,674.293s-1.216-7.187-5.305-9.833c0,0,.387-8.989,1.55-13.99a11.259,11.259,0,0,1,.772-2.373L824.69,646s-.043.047-.12.141l16.7,1.96a11.275,11.275,0,0,0-.769,2.373c-1.165,5-1.552,13.99-1.552,13.99,4.091,2.653,5.308,9.833,5.308,9.833,0,1.879,2.875,8.845,2.875,8.845-.458.586-2.18.75-3.521.787,1.069.028,4.2.038,4.846-.787C848.46,683.138,845.585,676.172,845.585,674.293Z" transform="translate(-817.43 -646)"/>
    </g>
    <path id="Path_3205" data-name="Path 3205" d="M786.829,631.752a4.037,4.037,0,0,1-.524.915,4.622,4.622,0,0,1-4.579,1.755,1.088,1.088,0,0,1-.748-1.71,6.813,6.813,0,0,1,3.333-2.565,6.085,6.085,0,0,1,1.413-.286Z" transform="translate(-611.37 -478.107)" fill="#b28b66"/>
    <path id="Path_3206" data-name="Path 3206" d="M879.174,482.123l-8.867-3.243s-2.544,1.327-1.548,3.206l8.634,5.419Z" transform="translate(-680.363 -359.4)" fill="#42383c"/>
    <path id="Path_3207" data-name="Path 3207" d="M879.326,482.293l-8.869-3.243s-2.544,1.325-1.548,3.206l8.623,5.417Z" transform="translate(-680.481 -359.534)" fill="#1e27ce"/>
    <path id="Path_3208" data-name="Path 3208" d="M902.281,468.247s-.111,5.2,2.212,6.966-6.746,2.764-6.746,2.764,1.439-5.308,0-8.072S902.281,468.247,902.281,468.247Z" transform="translate(-703.161 -350.869)" fill="#ae6e79"/>
    <path id="Path_3209" data-name="Path 3209" d="M838.44,648.051a11.285,11.285,0,0,0-.769,2.373,29.259,29.259,0,0,1-18.137-2.815c-.041-.064-.079-.128-.113-.192.667-.955,1.109-1.466,1.109-1.466Z" transform="translate(-641.753 -490.757)" opacity="0.1"/>
    <path id="Path_3210" data-name="Path 3210" d="M799.828,631.791a4.039,4.039,0,0,1-.524.915c-1.024-.171-1.843-2.138-1.995-2.51a6.1,6.1,0,0,1,1.413-.286Z" transform="translate(-624.369 -478.146)" opacity="0.1"/>
    <path id="Path_3211" data-name="Path 3211" d="M825.506,490.78l-3.98,1.436-1.659,2.212s-3.42,1.105-3.869,1.105-1.659.443-2.433,2.21-3.538,10.4-5.97,11.831-8.845,11.056-8.845,11.056,1.105,2.993,2.433,2.544l3.1-2.544s-2.433,2.433-1,4.645a29.765,29.765,0,0,0,21.562,2.1l.109-3.315.554,2.653,6.2-3.869a78.476,78.476,0,0,0-1.552-10.769,6.567,6.567,0,0,1,.427-4.577c1.605-3.345,4.083-8.933,3.781-10.97a5.089,5.089,0,0,0-2.232-3.758.924.924,0,0,0-.389-.13l-2.024-.2Z" transform="translate(-625.501 -368.756)" fill="#1e27ce"/>
    <path id="Path_3212" data-name="Path 3212" d="M841.272,542.76s-2.212,10.282-4.645,11.941-8.954,6.966-9.177,7.851" transform="translate(-648.066 -409.625)" opacity="0.05"/>
    <path id="Path_3213" data-name="Path 3213" d="M836.62,541.21s-2.21,10.282-4.643,11.941S823.02,560.117,822.8,561" transform="translate(-644.41 -408.406)" fill="#1e27ce"/>
    <path id="Path_3214" data-name="Path 3214" d="M897.28,500.266s7.629-2.544,9.833-1.881" transform="translate(-702.969 -374.649)" opacity="0.1"/>
    <g id="Group_2790" data-name="Group 2790" transform="translate(199.631 122.024)" opacity="0.05">
      <path id="Path_3215" data-name="Path 3215" d="M928.512,514.034c1.605-3.345,4.083-8.933,3.781-10.97a5.089,5.089,0,0,0-2.232-3.758.925.925,0,0,0-.389-.13l-.855-.086a.855.855,0,0,1,.257.1,5.1,5.1,0,0,1,2.229,3.76c.3,2.035-2.176,7.625-3.779,10.97a6.563,6.563,0,0,0-.428,4.574,78.287,78.287,0,0,1,1.554,10.769L923.32,532.6l.135.641,6.2-3.869A78.5,78.5,0,0,0,928.1,518.6,6.567,6.567,0,0,1,928.512,514.034Z" transform="translate(-923.074 -497.314)"/>
      <path id="Path_3216" data-name="Path 3216" d="M892.21,461.9l.958.1L889,460.35l-.374.135Z" transform="translate(-888.63 -460.35)"/>
    </g>
    <path id="Path_3217" data-name="Path 3217" d="M887.45,585.688s3.42-1.879,4.534-1.436,5.2-.111,5.2-.111" transform="translate(-695.241 -442.16)" opacity="0.05"/>
    <path id="Path_3218" data-name="Path 3218" d="M901.926,471.258c-.126-1.109.387-.94.387-.94s-5.97-1.105-4.534,1.659a6.334,6.334,0,0,1,.607,2.43h.058C900.1,474.409,901.071,472.553,901.926,471.258Z" transform="translate(-703.187 -352.496)" opacity="0.05"/>
    <circle id="Ellipse_181" data-name="Ellipse 181" cx="4.754" cy="4.754" r="4.754" transform="translate(190.497 111.962)" fill="#b28b66"/>
    <path id="Path_3219" data-name="Path 3219" d="M873.888,442.52a6.628,6.628,0,0,0,.695-3.012,3.416,3.416,0,0,0-1.381-2.674c-.445-.3-.97-.46-1.434-.733-.361-.214-.68-.494-1.024-.733a5.8,5.8,0,0,0-5.789-.427,26.6,26.6,0,0,0-2.439,1.616,4.087,4.087,0,0,1-2.757.772c-.167.46.242.913.616,1.229a4.162,4.162,0,0,0,2.445,1.21,2.559,2.559,0,0,1,1.069.081,1.534,1.534,0,0,1,.543.5,9.962,9.962,0,0,1,1.129,1.913,1.586,1.586,0,0,0,.5.744c.427.274.981.045,1.5.026a3.08,3.08,0,0,1,2.078.994,6.344,6.344,0,0,0,1.872,1.417c.549.214,1.648.2,1.924-.455.1-.248-.1-.778-.056-1.082a5.233,5.233,0,0,1,.509-1.389Z" transform="translate(-673.438 -324.398)" opacity="0.1"/>
    <path id="Path_3220" data-name="Path 3220" d="M874.356,441.99a6.6,6.6,0,0,0,.695-3.01,3.419,3.419,0,0,0-1.379-2.674c-.447-.3-.973-.462-1.434-.735-.361-.214-.68-.492-1.024-.733a5.8,5.8,0,0,0-5.789-.427,26.565,26.565,0,0,0-2.439,1.614,4.074,4.074,0,0,1-2.757.772c-.167.462.239.915.616,1.229a4.177,4.177,0,0,0,2.445,1.212,2.525,2.525,0,0,1,1.069.081,1.5,1.5,0,0,1,.543.5,9.839,9.839,0,0,1,1.127,1.911,1.589,1.589,0,0,0,.506.744c.428.274.981.045,1.5.026a3.082,3.082,0,0,1,2.076,1,6.289,6.289,0,0,0,1.875,1.415c.549.214,1.648.2,1.924-.455.107-.248-.1-.778-.053-1.082A5.223,5.223,0,0,1,874.356,441.99Z" transform="translate(-673.808 -323.981)" fill="#191846"/>
    <path id="Path_3221" data-name="Path 3221" d="M406.491,505.715a2.2,2.2,0,0,1-1.415.5l-95.5-.406a2.939,2.939,0,0,1-.656-2.238l9.435-77.2,5.917-.064a2.236,2.236,0,0,1,2.18,1.65l1.105,4.079a2.236,2.236,0,0,0,2.21,1.65l23.614-.566a2.236,2.236,0,0,0,2.183-2.236v-2.7a2.236,2.236,0,0,1,2.21-2.236l32.722-.353a2.236,2.236,0,0,1,2.217,1.815l14.471,75.67.094.487A2.223,2.223,0,0,1,406.491,505.715Z" transform="translate(-240.358 -317.501)" opacity="0.1"/>
    <path id="Path_3222" data-name="Path 3222" d="M317.875,430.6l-32.722.353a2.236,2.236,0,0,0-2.212,2.234v2.7a2.236,2.236,0,0,1-2.18,2.234l-23.612.566a2.234,2.234,0,0,1-2.212-1.65l-1.109-4.076a2.234,2.234,0,0,0-2.182-1.65l-31.54.34a2.234,2.234,0,0,0-2.18,2.608l12.689,74.679a2.236,2.236,0,0,0,2.2,1.862l99.642.428a2.236,2.236,0,0,0,2.2-2.655l-14.561-76.16A2.234,2.234,0,0,0,317.875,430.6Z" transform="translate(-168.807 -321.44)" fill="#006bff"/>
    <circle id="Ellipse_187" data-name="Ellipse 187" cx="4.624" cy="4.624" r="4.624" transform="translate(12.31 46.082)" fill="#578dd9"/>
    <circle id="Ellipse_188" data-name="Ellipse 188" cx="4.624" cy="4.624" r="4.624" transform="translate(234.638 83.03)" fill="#578dd9"/>
    <circle id="Ellipse_189" data-name="Ellipse 189" cx="4.624" cy="4.624" r="4.624" transform="translate(151.525 31.399)" fill="#578dd9"/>
    <circle id="Ellipse_190" data-name="Ellipse 190" cx="7.749" cy="7.749" r="7.749" transform="translate(18.432 68.464)" fill="#578dd9"/>
    <path id="Path_3247" data-name="Path 3247" d="M462.393,607.313l-.274-.274a.293.293,0,0,1,0-.428l2.4-2.4a.293.293,0,0,1,.427,0l2.4,2.4a.3.3,0,0,1,0,.428l-.274.274a.3.3,0,0,1-.428,0l-1.419-1.5v3.551a.295.295,0,0,1-.295.3h-.4a.3.3,0,0,1-.3-.3v-3.546l-1.419,1.5a.3.3,0,0,1-.427,0Z" transform="translate(-360.755 -457.866)" fill="#f6f7f9"/>
    <path id="Path_3248" data-name="Path 3248" d="M454.393,591.981a4.872,4.872,0,1,1-4.872,4.872,4.872,4.872,0,0,1,4.872-4.872m0-.641a5.513,5.513,0,1,0,5.513,5.513,5.513,5.513,0,0,0-5.513-5.513Z" transform="translate(-350.419 -447.821)" fill="#f6f7f9"/>
  </g>
</svg>
